<?xml version="1.0" standalone="no"?>
<!DOCTYPE svg PUBLIC "-//W3C//DTD SVG 20010904//EN"
 "http://www.w3.org/TR/2001/REC-SVG-20010904/DTD/svg10.dtd">
<svg version="1.0" xmlns="http://www.w3.org/2000/svg"
 width="512.000000pt" height="512.000000pt" viewBox="0 0 512.000000 512.000000"
 preserveAspectRatio="xMidYMid meet">

<g transform="translate(0.000000,512.000000) scale(0.100000,-0.100000)"
fill="#000000" stroke="none">
<path d="M3813 4946 c-95 -22 -186 -72 -276 -152 -45 -39 -769 -760 -1608
-1600 -1193 -1194 -1529 -1537 -1537 -1564 -6 -19 -61 -322 -123 -672 -82
-468 -110 -647 -104 -675 9 -49 69 -109 118 -118 28 -5 209 23 675 104 350 62
653 117 672 123 24 8 88 64 209 183 l174 172 -62 72 c-34 40 -78 97 -98 127
-20 30 -38 54 -42 54 -3 0 -49 -44 -103 -97 -54 -53 -99 -95 -101 -92 -2 2
-45 128 -96 279 -70 212 -97 282 -118 303 -21 21 -91 48 -303 118 -151 51
-277 94 -280 96 -2 2 502 510 1120 1128 l1125 1125 402 -402 403 -402 -30 -31
c-17 -17 -30 -33 -30 -37 0 -3 24 -21 54 -41 30 -20 87 -64 127 -98 l72 -62
392 394 c277 279 402 412 427 454 104 174 114 378 27 561 -30 61 -64 100 -314
352 -154 156 -304 299 -334 319 -118 78 -298 111 -438 79z m237 -334 c32 -15
124 -101 301 -279 234 -235 258 -263 274 -312 20 -62 16 -140 -10 -192 -9 -19
-49 -67 -88 -107 l-72 -72 -402 402 -403 403 68 68 c94 96 140 118 232 114 31
-2 75 -12 100 -25z m108 -1259 l-73 -73 -402 402 -403 403 72 72 73 73 402
-402 403 -403 -72 -72z m-2922 -2446 c80 -240 82 -247 61 -252 -76 -17 -770
-135 -774 -132 -3 4 115 698 132 774 5 21 12 19 252 -61 l247 -82 82 -247z"/>
<path d="M2920 2955 c-8 -2 -49 -9 -90 -15 -160 -26 -361 -111 -493 -208 -241
-176 -409 -438 -473 -732 -26 -118 -26 -362 0 -480 104 -482 475 -845 961
-941 103 -21 349 -18 455 5 481 104 845 475 941 961 21 103 18 349 -5 455
-100 466 -454 826 -916 931 -78 18 -338 35 -380 24z m275 -330 c175 -31 336
-115 465 -245 345 -345 345 -895 0 -1240 -345 -345 -895 -345 -1240 0 -345
344 -345 897 -1 1241 205 205 489 294 776 244z"/>
<path d="M2900 2462 c-195 -51 -340 -229 -340 -416 0 -54 34 -121 74 -146 47
-28 129 -27 173 3 37 25 73 89 73 131 0 69 71 126 157 126 94 0 170 -67 160
-143 -10 -77 -53 -111 -160 -126 -74 -11 -108 -29 -137 -76 -18 -29 -20 -49
-20 -192 0 -149 1 -162 23 -193 30 -46 78 -72 131 -72 100 0 164 75 166 192
l0 45 59 27 c116 54 214 171 246 293 41 158 -5 315 -126 430 -124 119 -304
162 -479 117z"/>
<path d="M2974 1301 c-23 -10 -52 -34 -65 -52 -20 -29 -24 -46 -24 -111 0 -83
12 -110 69 -152 39 -29 133 -29 172 0 57 42 69 69 69 152 0 65 -4 82 -24 111
-26 36 -90 71 -131 71 -14 0 -43 -9 -66 -19z"/>
</g>
</svg>
