<svg xmlns="http://www.w3.org/2000/svg" fill="none" viewBox="0 0 24 24" id="Leaderboard--Streamline-Rounded-Material" height="24" width="24">
  <desc>
    Leaderboard Streamline Icon: https://streamlinehq.com
  </desc>
  <path fill="#000000" d="M3.5 19.5h4.675V10.5H3.5v9Zm6.175 0h4.65V4.5h-4.65v15Zm6.15 0H20.5V12.5h-4.675v7ZM2 19.5V10.5c0 -0.4125 0.146915 -0.76565 0.44075 -1.0595C2.734415 9.14685 3.0875 9 3.5 9h4.675V4.5c0 -0.4125 0.1469 -0.765665 0.44075 -1.0595C8.9094 3.146835 9.2625 3 9.675 3h4.65c0.4125 0 0.76565 0.146835 1.0595 0.4405 0.29365 0.293835 0.4405 0.647 0.4405 1.0595v6.5H20.5c0.4125 0 0.76565 0.14685 1.0595 0.4405 0.29365 0.29385 0.4405 0.647 0.4405 1.0595v7c0 0.4125 -0.14685 0.7656 -0.4405 1.05925C21.26565 20.8531 20.9125 21 20.5 21H3.5c-0.4125 0 -0.765585 -0.1469 -1.05925 -0.44075C2.146915 20.2656 2 19.9125 2 19.5Z" stroke-width="0.5"></path>
</svg>