<?xml version="1.0" standalone="no"?>
<!DOCTYPE svg PUBLIC "-//W3C//DTD SVG 20010904//EN"
 "http://www.w3.org/TR/2001/REC-SVG-20010904/DTD/svg10.dtd">
<svg version="1.0" xmlns="http://www.w3.org/2000/svg"
 width="900.000000pt" height="900.000000pt" viewBox="0 0 900.000000 900.000000"
 preserveAspectRatio="xMidYMid meet">
<metadata>
Created by potrace 1.10, written by Peter Selinger 2001-2011
</metadata>
<g transform="translate(0.000000,900.000000) scale(0.100000,-0.100000)"
fill="#000000" stroke="none">
<path d="M2985 8570 l-2240 -5 -70 -34 c-139 -67 -246 -211 -266 -360 -6 -39
-8 -1192 -7 -2781 3 -2645 3 -2716 22 -2755 10 -22 28 -59 40 -83 29 -58 124
-153 188 -186 121 -64 28 -60 1457 -63 741 -2 1308 0 1313 5 5 5 -6 42 -27 87
-46 98 -59 173 -51 308 l6 107 -1209 0 c-665 0 -1216 3 -1225 6 -15 6 -16 246
-16 2619 0 2186 2 2614 14 2624 10 8 704 10 2632 9 l2619 -3 3 -2012 c1 -1107
6 -2013 10 -2013 4 0 117 109 250 242 l242 243 -1 1810 c0 1387 -3 1823 -13
1865 -31 140 -134 270 -261 330 -38 18 -90 35 -115 37 -83 7 -1041 8 -3295 3z"/>
<path d="M3320 7345 c-52 -6 -115 -17 -140 -24 -123 -33 -157 -44 -182 -57
-14 -8 -31 -14 -37 -14 -10 0 -136 -60 -176 -84 -129 -77 -270 -206 -340 -311
-29 -44 -43 -68 -51 -85 -3 -8 -12 -28 -19 -45 -33 -76 -45 -145 -45 -258 0
-110 2 -121 30 -181 35 -73 106 -152 165 -182 67 -35 156 -47 238 -33 39 6 87
20 107 30 42 22 120 96 174 164 60 75 135 152 189 192 56 42 163 73 248 73 54
0 146 -21 179 -41 8 -5 24 -13 36 -18 33 -15 124 -121 141 -166 25 -63 28
-176 7 -238 -45 -128 -166 -226 -319 -257 -22 -4 -67 -13 -100 -20 -202 -40
-273 -79 -330 -180 -19 -33 -20 -54 -20 -355 0 -354 1 -359 69 -450 64 -86
112 -117 226 -146 94 -23 110 -23 196 0 107 29 163 65 218 140 54 73 69 123
75 240 l6 104 40 14 c22 8 58 18 80 23 200 43 451 206 576 375 57 76 122 212
136 285 3 14 11 45 18 70 7 25 18 106 25 180 10 114 10 154 -4 260 -22 177
-36 227 -103 365 -54 113 -115 199 -202 285 -59 58 -144 130 -154 130 -3 0
-23 12 -44 26 -21 14 -47 30 -58 35 -11 5 -27 13 -35 18 -28 18 -150 71 -162
71 -7 0 -30 6 -53 14 -74 25 -139 38 -265 52 -145 16 -209 16 -340 -1z"/>
<path d="M8140 5133 c-168 -59 -316 -145 -545 -316 -66 -50 -127 -97 -136
-106 -9 -9 -38 -34 -65 -56 -228 -187 -772 -707 -1055 -1010 -128 -137 -343
-366 -355 -379 -5 -6 -49 -55 -96 -108 -90 -101 -152 -169 -179 -197 -8 -9
-57 -65 -109 -126 -52 -60 -97 -112 -101 -115 -3 -3 -30 -34 -59 -70 -30 -36
-69 -81 -87 -99 l-33 -35 -42 23 c-191 103 -506 250 -675 315 -112 42 -109 41
-278 90 -27 8 -94 20 -147 27 -110 14 -211 2 -282 -34 -43 -22 -113 -88 -135
-127 -20 -34 -41 -118 -41 -161 0 -72 25 -103 264 -342 223 -222 354 -366 461
-507 28 -36 55 -72 62 -80 53 -66 218 -298 248 -348 6 -9 42 -64 80 -122 73
-109 87 -132 105 -165 6 -11 18 -32 28 -47 9 -14 46 -75 82 -134 84 -139 87
-145 100 -169 6 -11 19 -33 29 -50 11 -16 32 -52 47 -80 83 -152 87 -157 133
-193 38 -29 49 -32 110 -32 59 0 73 4 108 29 43 31 67 74 128 231 10 25 24 60
31 77 8 18 20 48 28 65 7 18 21 51 31 73 10 22 24 54 31 70 16 36 58 133 86
195 63 140 238 495 318 645 27 50 60 113 75 140 14 28 35 66 47 85 11 19 31
55 45 80 13 25 33 59 43 75 10 17 25 41 32 55 16 28 124 208 150 248 10 15 21
34 25 42 4 8 26 43 50 78 24 35 43 66 43 69 0 3 13 22 28 42 16 20 32 43 35
51 4 8 36 56 71 105 36 50 82 115 102 145 40 58 243 332 254 340 3 3 30 37 60
75 30 39 60 75 66 80 6 6 26 30 44 55 18 25 38 50 44 55 6 6 54 60 106 120
146 170 179 205 581 605 377 376 420 423 452 493 27 59 23 167 -7 216 -27 43
-82 88 -139 114 -50 23 -232 23 -297 0z"/>
<path d="M3365 4413 c-90 -28 -138 -57 -204 -124 -68 -67 -97 -115 -125 -208
-42 -139 4 -302 118 -417 148 -147 334 -175 524 -79 58 30 146 120 177 182 77
153 71 286 -21 454 -21 40 -126 134 -176 157 -109 52 -203 63 -293 35z"/>
</g>
</svg>
