<?xml version="1.0" standalone="no"?>
<!DOCTYPE svg PUBLIC "-//W3C//DTD SVG 20010904//EN"
 "http://www.w3.org/TR/2001/REC-SVG-20010904/DTD/svg10.dtd">
<svg version="1.0" xmlns="http://www.w3.org/2000/svg"
 width="200.000000pt" height="200.000000pt" viewBox="0 0 200.000000 200.000000"
 preserveAspectRatio="xMidYMid meet">

<g transform="translate(0.000000,200.000000) scale(0.100000,-0.100000)"
fill="#000000" stroke="none">
<path d="M730 1837 c-141 -40 -233 -161 -234 -308 -1 -68 3 -83 34 -145 105
-205 381 -235 527 -56 161 197 33 496 -223 517 -34 3 -78 -1 -104 -8z"/>
<path d="M1636 1106 c-22 -8 -64 -39 -95 -69 -31 -29 -157 -148 -281 -262
-124 -115 -258 -240 -299 -279 l-75 -71 -33 -125 c-18 -69 -33 -130 -33 -136
0 -7 47 -3 141 10 l140 21 359 334 c301 279 362 340 376 376 48 126 -73 247
-200 201z"/>
<path d="M334 1054 c-60 -21 -119 -77 -151 -142 -28 -57 -28 -58 -28 -252 l0
-195 330 -3 331 -2 259 241 c143 132 267 247 275 256 13 13 11 18 -23 48 -73
64 -85 65 -541 64 -333 0 -419 -3 -452 -15z"/>
</g>
</svg>
